<svg width="19" height="22" viewBox="0 0 19 22" fill="none" xmlns="http://www.w3.org/2000/svg">
<path fill-rule="evenodd" clip-rule="evenodd" d="M3.75003 1.2501C3.75003 0.835884 4.08582 0.500097 4.50003 0.500097C4.91424 0.500097 5.25003 0.835884 5.25003 1.2501V7.2501C5.25003 7.66431 4.91424 8.0001 4.50003 8.0001C4.08582 8.0001 3.75003 7.66431 3.75003 7.2501V1.2501ZM7.50003 7.2501C7.50003 8.90695 6.15688 10.2501 4.50003 10.2501C2.84318 10.2501 1.50003 8.90695 1.50003 7.2501V1.2501C1.50003 0.835884 1.16424 0.500097 0.750031 0.500097C0.335817 0.500097 3.05176e-05 0.835884 3.05176e-05 1.2501V7.2501C0.00225403 9.44424 1.58658 11.3169 3.75003 11.6826V20.7501C3.75003 21.1643 4.08582 21.5001 4.50003 21.5001C4.91424 21.5001 5.25003 21.1643 5.25003 20.7501V11.6826C7.41348 11.3169 8.99781 9.44424 9.00003 7.2501V1.2501C9.00003 0.835884 8.66424 0.500097 8.25003 0.500097C7.83582 0.500097 7.50003 0.835884 7.50003 1.2501V7.2501ZM13.5 0.500097H12.75V20.7501C12.75 21.1643 13.0858 21.5001 13.5 21.5001C13.9142 21.5001 14.25 21.1643 14.25 20.7501V14.0001H16.5C17.3285 14.0001 18 13.3285 18 12.5001V5.0001C18.0469 3.79286 17.5879 2.62081 16.7336 1.76652C15.8793 0.912231 14.7073 0.453202 13.5 0.500097ZM16.5 12.5001H14.25V2.0676C16.41 2.4876 16.5 4.7226 16.5 5.0001V12.5001Z" fill="white"/>
</svg>
