<svg width="20" height="18" viewBox="0 0 20 18" fill="none" xmlns="http://www.w3.org/2000/svg">
<path fill-rule="evenodd" clip-rule="evenodd" d="M0.750031 0.75C1.16424 0.75 1.50003 1.08579 1.50003 1.5V9.5H19.25C19.6642 9.5 20 9.83579 20 10.25V16.5C20 16.9142 19.6642 17.25 19.25 17.25C18.8358 17.25 18.5 16.9142 18.5 16.5V14.75H1.50003V16.5C1.50003 16.9142 1.16424 17.25 0.750031 17.25C0.335817 17.25 3.05176e-05 16.9142 3.05176e-05 16.5V1.5C3.05176e-05 1.08579 0.335817 0.75 0.750031 0.75ZM1.50003 11V13.25H18.5V11H1.50003Z" fill="white"/>
<path fill-rule="evenodd" clip-rule="evenodd" d="M2.50003 5.875C2.50003 4.42525 3.67528 3.25 5.12503 3.25C6.57478 3.25 7.75003 4.42525 7.75003 5.875C7.75003 7.32475 6.57478 8.5 5.12503 8.5C3.67528 8.5 2.50003 7.32475 2.50003 5.875ZM5.12503 4.75C4.50371 4.75 4.00003 5.25368 4.00003 5.875C4.00003 6.49632 4.50371 7 5.12503 7C5.74635 7 6.25003 6.49632 6.25003 5.875C6.25003 5.25368 5.74635 4.75 5.12503 4.75Z" fill="white"/>
<path fill-rule="evenodd" clip-rule="evenodd" d="M9.50003 3.25C9.08582 3.25 8.75003 3.58579 8.75003 4V7.75C8.75003 8.16421 9.08582 8.5 9.50003 8.5H19.25C19.6642 8.5 20 8.16421 20 7.75V6.5C20 4.70507 18.545 3.25 16.75 3.25H9.50003ZM18.5 7H10.25V4.75H16.75C17.7165 4.75 18.5 5.5335 18.5 6.5V7Z" fill="white"/>
</svg>
