<svg width="19" height="19" viewBox="0 0 19 19" fill="none" xmlns="http://www.w3.org/2000/svg">
<path d="M9.00201 18.041C6.54201 18.041 6.25201 18.028 5.29201 17.986C4.54339 17.9614 3.80445 17.8092 3.10701 17.536C1.90033 17.0664 0.946155 16.1119 0.477014 14.905C0.21432 14.205 0.072632 13.4655 0.0580142 12.718C0.00201416 11.76 0.00201416 11.446 0.00201416 9.005C0.00201416 6.538 0.0150142 6.25 0.0580142 5.295C0.0729518 4.54853 0.214635 3.81001 0.477014 3.111C0.945645 1.90253 1.90137 0.947177 3.11001 0.479005C3.80866 0.215207 4.54736 0.0731492 5.29401 0.0590049C6.24901 0.00500488 6.56301 0.00500488 9.00201 0.00500488C11.482 0.00500488 11.767 0.0180049 12.712 0.0590049C13.4606 0.0732715 14.2013 0.215315 14.902 0.479005C16.1103 0.947708 17.0659 1.90288 17.535 3.111C17.8021 3.8202 17.9446 4.57026 17.956 5.328C18.012 6.28601 18.012 6.59901 18.012 9.03901C18.012 11.479 17.998 11.799 17.956 12.746C17.9411 13.4942 17.7991 14.2344 17.536 14.935C17.0657 16.1427 16.1101 17.0976 14.902 17.567C14.2023 17.8292 13.4631 17.9709 12.716 17.986C11.761 18.041 11.448 18.041 9.00201 18.041ZM8.96801 1.588C6.52201 1.588 6.26801 1.6 5.31301 1.643C4.743 1.65056 4.17849 1.75575 3.64401 1.954C2.85477 2.25601 2.23024 2.878 1.92501 3.666C1.72523 4.2063 1.62002 4.77698 1.61401 5.353C1.56101 6.322 1.56101 6.576 1.56101 9.005C1.56101 11.405 1.57001 11.696 1.61401 12.659C1.62297 13.2292 1.72811 13.7938 1.92501 14.329C2.23069 15.1165 2.85511 15.738 3.64401 16.04C4.17813 16.2396 4.74287 16.3448 5.31301 16.351C6.28101 16.407 6.53601 16.407 8.96801 16.407C11.421 16.407 11.675 16.395 12.622 16.351C13.1924 16.3441 13.7574 16.2389 14.292 16.04C15.0765 15.7354 15.6969 15.1153 16.002 14.331C16.2014 13.7903 16.3066 13.2193 16.313 12.643H16.324C16.367 11.687 16.367 11.432 16.367 8.98901C16.367 6.54601 16.356 6.289 16.313 5.334C16.304 4.76446 16.1989 4.20052 16.002 3.666C15.6976 2.88058 15.0771 2.2593 14.292 1.954C13.7575 1.75475 13.1925 1.64953 12.622 1.643C11.655 1.588 11.402 1.588 8.96801 1.588ZM9.00201 13.624C7.132 13.6252 5.44543 12.4997 4.72888 10.7725C4.01232 9.04518 4.40692 7.05634 5.72865 5.73347C7.05037 4.4106 9.03888 4.01428 10.7668 4.72934C12.4947 5.4444 13.6216 7.12999 13.622 9C13.6193 11.5511 11.5531 13.619 9.00201 13.624ZM9.00201 5.998C7.34516 5.998 6.00201 7.34115 6.00201 8.998C6.00201 10.6549 7.34516 11.998 9.00201 11.998C10.6589 11.998 12.002 10.6549 12.002 8.998C11.9982 7.34275 10.6573 6.00185 9.00201 5.998ZM13.802 5.28501C13.2074 5.2828 12.7269 4.79959 12.728 4.20501C12.7291 3.61043 13.2114 3.12901 13.806 3.12901C14.4006 3.12901 14.8829 3.61042 14.884 4.205C14.8843 4.49187 14.7703 4.76703 14.5673 4.96968C14.3642 5.17234 14.0889 5.2858 13.802 5.28501Z" fill="#2B2B2B"/>
</svg>
