<svg width="119" height="20" viewBox="0 0 119 20" fill="none" xmlns="http://www.w3.org/2000/svg">
<g clip-path="url(#clip0_1_565)">
<path d="M0 0.478394H3.64465V14.4875L19.9772 0.478394H22.9841V19.4989H19.2027V5.48978L3.00683 19.4989H0V0.478394Z" fill="#3D63A9"/>
<path d="M35.7859 0C29.2255 0 23.8952 4.48747 23.8952 10C23.8952 15.5353 29.2255 20 35.7859 20C42.3462 20 47.6765 15.5125 47.6765 10C47.6765 4.48747 42.3462 0 35.7859 0ZM35.7859 16.7198C31.2984 16.7198 27.6537 13.713 27.6537 10C27.6537 6.28702 31.2984 3.28018 35.7859 3.28018C40.2733 3.28018 43.918 6.28702 43.918 10C43.918 13.713 40.2961 16.7198 35.7859 16.7198Z" fill="#ADC22F"/>
<path d="M48.451 19.795H52.0957V4.48752L60.205 7.99549L68.3144 4.48752V19.795H71.959V0.136719H69.2255L60.205 3.71303L51.2301 0.136719H48.451V19.795Z" fill="#AA2275"/>
<path d="M72.4374 19.795H76.5376L84.5103 4.66975L92.4374 19.795H96.5832L86.082 0.136719H82.9613L72.4374 19.795Z" fill="#17A3AB"/>
<path d="M107.585 0.136719H96.7881V19.795H107.585C107.585 19.795 118.337 19.0661 118.337 10C118.337 0.933986 107.585 0.136719 107.585 0.136719ZM107.563 16.6287H100.569V3.28023H107.563C107.563 3.28023 114.533 3.82692 114.533 9.97726C114.556 16.1276 107.563 16.6287 107.563 16.6287Z" fill="#FF8429"/>
</g>
<defs>
<clipPath id="clip0_1_565">
<rect width="118.337" height="20" fill="white"/>
</clipPath>
</defs>
</svg>
