<svg width="207" height="128" viewBox="0 0 207 128" fill="none" xmlns="http://www.w3.org/2000/svg">
<g filter="url(#filter0_d_915_259)">
<rect x="32" y="20" width="142.67" height="64" rx="16" fill="white"/>
<g clip-path="url(#clip0_915_259)">
<path d="M56 44.3828H58.9157V55.5901L71.9818 44.3828H74.3872V59.5992H71.3622V48.3919L58.4055 59.5992H56V44.3828Z" fill="#3D63A9"/>
<path d="M84.6287 44C79.3804 44 75.1161 47.59 75.1161 52C75.1161 56.4282 79.3804 60 84.6287 60C89.877 60 94.1412 56.41 94.1412 52C94.1412 47.59 89.877 44 84.6287 44ZM84.6287 57.3759C81.0387 57.3759 78.123 54.9704 78.123 52C78.123 49.0296 81.0387 46.6241 84.6287 46.6241C88.2187 46.6241 91.1344 49.0296 91.1344 52C91.1344 54.9704 88.2369 57.3759 84.6287 57.3759Z" fill="#ADC22F"/>
<path d="M94.7608 59.836H97.6765V47.59L104.164 50.3964L110.651 47.59V59.836H113.567V44.1094H111.38L104.164 46.9704L96.984 44.1094H94.7608V59.836Z" fill="#AA2275"/>
<path d="M113.95 59.836H117.23L123.608 47.7358L129.95 59.836H133.267L124.866 44.1094H122.369L113.95 59.836Z" fill="#17A3AB"/>
<path d="M142.068 44.1094H133.431V59.836H142.068C142.068 59.836 150.67 59.2529 150.67 52C150.67 44.7472 142.068 44.1094 142.068 44.1094ZM142.05 57.303H136.456V46.6242H142.05C142.05 46.6242 147.626 47.0615 147.626 51.9818C147.645 56.9021 142.05 57.303 142.05 57.303Z" fill="#3D63A9"/>
</g>
</g>
<defs>
<filter id="filter0_d_915_259" x="0" y="0" width="206.67" height="128" filterUnits="userSpaceOnUse" color-interpolation-filters="sRGB">
<feFlood flood-opacity="0" result="BackgroundImageFix"/>
<feColorMatrix in="SourceAlpha" type="matrix" values="0 0 0 0 0 0 0 0 0 0 0 0 0 0 0 0 0 0 127 0" result="hardAlpha"/>
<feOffset dy="12"/>
<feGaussianBlur stdDeviation="16"/>
<feColorMatrix type="matrix" values="0 0 0 0 0 0 0 0 0 0 0 0 0 0 0 0 0 0 0.25 0"/>
<feBlend mode="normal" in2="BackgroundImageFix" result="effect1_dropShadow_915_259"/>
<feBlend mode="normal" in="SourceGraphic" in2="effect1_dropShadow_915_259" result="shape"/>
</filter>
<clipPath id="clip0_915_259">
<rect width="94.6697" height="16" fill="white" transform="translate(56 44)"/>
</clipPath>
</defs>
</svg>
